<svg width="82" height="85" viewBox="0 0 82 85" fill="none" xmlns="http://www.w3.org/2000/svg">
<path d="M62.0513 17.1026C62.6319 17.1026 63.1026 16.6319 63.1026 16.0513C63.1026 15.4707 62.6319 15 62.0513 15C61.4707 15 61 15.4707 61 16.0513C61 16.6319 61.4707 17.1026 62.0513 17.1026Z" fill="#FAE348"/>
<path d="M53.2051 16.4103C55.5276 16.4103 57.4103 14.5276 57.4103 12.2051C57.4103 9.8827 55.5276 8 53.2051 8C50.8827 8 49 9.8827 49 12.2051C49 14.5276 50.8827 16.4103 53.2051 16.4103Z" fill="#FAE348"/>
<path d="M79.8975 4.20513C81.0587 4.20513 82.0001 3.26378 82.0001 2.10256C82.0001 0.94135 81.0587 0 79.8975 0C78.7363 0 77.7949 0.94135 77.7949 2.10256C77.7949 3.26378 78.7363 4.20513 79.8975 4.20513Z" fill="#FAE348"/>
<path d="M73.5897 73.4354C74.751 73.4354 75.6923 72.494 75.6923 71.3328C75.6923 70.1716 74.751 69.2302 73.5897 69.2302C72.4285 69.2302 71.4872 70.1716 71.4872 71.3328C71.4872 72.494 72.4285 73.4354 73.5897 73.4354Z" fill="#FAE348"/>
<path d="M4.20513 61.8712C6.52756 61.8712 8.41026 59.9885 8.41026 57.6661C8.41026 55.3436 6.52756 53.4609 4.20513 53.4609C1.8827 53.4609 0 55.3436 0 57.6661C0 59.9885 1.8827 61.8712 4.20513 61.8712Z" fill="#FAE348"/>
<path d="M14.7179 84.9996C15.8791 84.9996 16.8205 84.0582 16.8205 82.897C16.8205 81.7358 15.8791 80.7944 14.7179 80.7944C13.5567 80.7944 12.6154 81.7358 12.6154 82.897C12.6154 84.0582 13.5567 84.9996 14.7179 84.9996Z" fill="#FAE348"/>
<path d="M8.93588 39.7943C10.3874 39.7943 11.5641 38.6176 11.5641 37.166C11.5641 35.7145 10.3874 34.5378 8.93588 34.5378C7.48437 34.5378 6.30768 35.7145 6.30768 37.166C6.30768 38.6176 7.48437 39.7943 8.93588 39.7943Z" fill="white"/>
<path d="M56.3246 36.1629C56.3246 38.6271 56.3571 41.0913 56.3172 43.5544C56.2383 48.4734 54.5542 52.8089 51.4865 56.6334C49.8949 58.6182 47.8722 60.109 45.8685 61.626C43.3749 63.5151 40.8907 65.4148 38.4023 67.3102C37.8357 67.7413 37.5245 67.7455 36.9736 67.3239C33.6947 64.8198 30.3873 62.3503 27.1431 59.8009C23.062 56.5945 20.5326 52.4031 19.4403 47.3296C19.0167 45.3595 19.0282 43.3683 19.0303 41.373C19.0356 36.9114 19.0356 32.4497 19.0377 27.9891C19.0377 27.105 19.1996 26.9505 20.0785 26.9294C25.3138 26.8033 30.2023 25.5228 34.542 22.4941C35.4251 21.878 36.2198 21.1337 37.0367 20.4273C37.4898 20.0362 37.8914 20.0057 38.3035 20.4083C41.1104 23.1459 44.4808 24.8794 48.2234 25.9297C50.1472 26.47 52.11 26.8022 54.1148 26.8474C54.5626 26.858 55.0094 26.9053 55.4583 26.9252C56.0975 26.9547 56.3298 27.1902 56.3309 27.8714C56.3351 30.6352 56.333 33.398 56.333 36.1618C56.3298 36.1629 56.3267 36.1629 56.3246 36.1629Z" fill="#CBC9BC"/>
<path d="M37.6738 68.3738C37.3016 68.3738 36.9315 68.2204 36.5258 67.9102C35.527 67.147 34.5262 66.388 33.5243 65.6279C31.2746 63.9217 28.9481 62.1576 26.6879 60.382C22.5416 57.123 19.8608 52.7844 18.7202 47.4859C18.2902 45.4853 18.2923 43.4648 18.2944 41.5104L18.3018 27.9899C18.3018 26.7115 18.7791 26.2248 20.0606 26.1933C25.5609 26.0618 30.1602 24.6552 34.1215 21.8914C34.7764 21.433 35.3799 20.9032 36.019 20.3408L36.5562 19.8719C37.3132 19.2159 38.1384 19.2169 38.8165 19.8824C41.3795 22.3803 44.5208 24.1275 48.4231 25.2219C50.4037 25.779 52.2719 26.0713 54.1337 26.1134C54.4049 26.1197 54.6772 26.1386 54.9474 26.1586C55.1292 26.1712 55.3111 26.1838 55.493 26.1922C56.5359 26.2406 57.0657 26.8061 57.0678 27.8721L57.0699 36.1647C57.0699 36.2015 57.0668 36.2372 57.0615 36.2729L57.0678 38.4575C57.0752 40.1606 57.0825 41.8647 57.0541 43.5678C56.9753 48.512 55.2953 53.063 52.0616 57.0946C50.4931 59.05 48.5219 60.5428 46.6149 61.9863L46.3142 62.2133C44.5565 63.5453 42.803 64.8815 41.0494 66.2198L38.848 67.8966C38.4286 68.2151 38.0512 68.3738 37.6738 68.3738ZM37.6843 66.9021H37.6948H37.6843ZM19.7851 27.684C19.7788 27.747 19.7736 27.8427 19.7736 27.9899L19.7662 41.5125C19.7631 43.4753 19.761 45.3287 20.1594 47.1758C21.2264 52.1294 23.7285 56.1832 27.5972 59.2235C29.848 60.9928 32.1692 62.7526 34.4137 64.4557C35.4156 65.2168 36.4185 65.9759 37.4183 66.7401C37.6054 66.8831 37.6759 66.901 37.6822 66.9021C37.6748 66.8999 37.7505 66.88 37.9544 66.7254L40.1558 65.0486C41.9104 63.7114 43.665 62.3731 45.4238 61.0411L45.7245 60.813C47.6441 59.3591 49.4576 57.9872 50.9125 56.1737C53.9371 52.4038 55.5077 48.1545 55.5802 43.5436C55.6076 41.85 55.6013 40.1564 55.5939 38.4628L55.5876 36.1636C55.5876 36.1258 55.5908 36.09 55.596 36.0532L55.5939 27.8743C55.5939 27.7744 55.5876 27.7113 55.5802 27.6724C55.5519 27.6766 55.5003 27.6671 55.4236 27.6629C55.2291 27.6535 55.0367 27.6409 54.8422 27.6272C54.5941 27.6093 54.345 27.5915 54.0979 27.5862C52.1394 27.541 50.0947 27.2225 48.0236 26.64C43.8795 25.4773 40.5311 23.6113 37.7894 20.9368C37.7368 20.8864 37.7042 20.8664 37.6895 20.859C37.6843 20.8675 37.6243 20.8948 37.5182 20.9863L36.9904 21.4478C36.3491 22.0113 35.6868 22.5947 34.9625 23.0993C30.7574 26.0335 25.8941 27.5263 20.0953 27.6661C19.946 27.6682 19.8482 27.6766 19.7851 27.684Z" fill="#472B29"/>
<path d="M52.5147 37.7401C52.5147 39.7007 52.541 41.6613 52.5095 43.6209C52.4464 47.5349 51.106 50.9841 48.666 54.0265C47.4002 55.6055 45.7897 56.7914 44.1959 57.9993C42.2122 59.5027 40.2358 61.0144 38.2551 62.5219C37.8052 62.8647 37.5571 62.8678 37.1187 62.5335C34.5094 60.5413 31.8781 58.5765 29.2972 56.5485C26.0508 53.9971 24.0376 50.6624 23.1682 46.6265C22.8307 45.0591 22.8402 43.4748 22.8423 41.8874C22.8465 38.3372 22.8465 34.7881 22.8476 31.2379C22.8476 30.5346 22.9769 30.4116 23.676 30.3947C27.8411 30.2949 31.7309 29.2751 35.1833 26.8666C35.8855 26.3767 36.5184 25.7849 37.1681 25.2224C37.5287 24.9113 37.8483 24.8871 38.1763 25.2067C40.4103 27.3849 43.091 28.7642 46.0693 29.6C47.6 30.03 49.1611 30.2938 50.757 30.3306C51.1134 30.339 51.4687 30.3769 51.8261 30.3926C52.335 30.4158 52.52 30.6029 52.52 31.1454C52.5231 33.3436 52.521 35.5429 52.521 37.7411C52.5189 37.7401 52.5168 37.7401 52.5147 37.7401Z" fill="#FAE348"/>
<path d="M37.6758 63.1781C37.4214 63.1781 37.1681 63.0677 36.879 62.847C36.0832 62.2404 35.2863 61.6359 34.4894 61.0303C32.6696 59.65 30.8488 58.2697 29.0532 56.8578C25.79 54.2937 23.6812 50.8781 22.7823 46.7087C22.4438 45.1328 22.4459 43.5317 22.448 41.9832L22.4533 31.237C22.4543 30.3224 22.7487 30.0217 23.6654 29.9986C28.0818 29.8924 31.775 28.7623 34.9572 26.5409C35.4871 26.1709 35.9917 25.7272 36.4805 25.2973L36.9095 24.922C37.6201 24.3101 38.1805 24.6581 38.4506 24.923C40.5122 26.9341 43.0384 28.3386 46.1755 29.2185C47.7682 29.6664 49.2683 29.8998 50.7654 29.9355C50.9788 29.9408 51.1932 29.9555 51.4066 29.9702C51.5528 29.9807 51.6968 29.9912 51.8429 29.9965C52.5704 30.0301 52.9121 30.3949 52.9131 31.1434C52.9163 32.7918 52.9163 34.4424 52.9152 36.0908V37.7392C52.9152 37.7644 52.9131 37.7896 52.9079 37.8128L52.9131 39.58C52.9194 40.9298 52.9247 42.2786 52.9026 43.6274C52.8395 47.5182 51.5191 51.0999 48.974 54.2727C47.7356 55.816 46.1713 56.9997 44.6585 58.1435L44.4335 58.3138C43.0689 59.3472 41.7086 60.3859 40.3472 61.4235L38.4937 62.8354C38.1952 63.0635 37.9345 63.1781 37.6758 63.1781ZM37.7011 25.3708C37.6338 25.3708 37.5497 25.4129 37.4256 25.5201L37.002 25.8912C36.4984 26.3349 35.9749 26.7932 35.4093 27.1885C32.0956 29.5013 28.2606 30.6777 23.6854 30.7881C23.3742 30.7955 23.2954 30.8259 23.2764 30.8396C23.2743 30.847 23.2417 30.9216 23.2417 31.2391L23.2365 41.8865C23.2344 43.4907 23.2323 45.0498 23.5529 46.5426C24.4118 50.5291 26.4261 53.7912 29.54 56.2386C31.3324 57.6473 33.1501 59.0245 34.9656 60.4027C35.7646 61.0072 36.5625 61.6127 37.3573 62.2204C37.6548 62.4475 37.7032 62.4475 38.0154 62.2078L39.8688 60.7959C41.2313 59.7572 42.5927 58.7186 43.9573 57.6852L44.1833 57.5149C45.6572 56.3984 47.1826 55.2462 48.359 53.7796C50.7916 50.7467 52.0563 47.3269 52.1152 43.6148C52.1373 42.2713 52.132 40.9277 52.1257 39.5842L52.1205 37.7392C52.1205 37.7139 52.1226 37.6877 52.1278 37.6645V36.0908C52.1289 34.4424 52.1289 32.7929 52.1257 31.1455C52.1247 30.7997 52.0952 30.7986 51.8072 30.785C51.6558 30.7776 51.5044 30.766 51.352 30.7566C51.1512 30.7418 50.9493 30.7282 50.7475 30.724C49.1842 30.6882 47.6178 30.4433 45.962 29.9786C42.6968 29.0619 40.0601 27.5922 37.9008 25.4886C37.8304 25.4192 37.7747 25.3708 37.7011 25.3708Z" fill="#472B29"/>
<path d="M35.0865 27.4057L37.6801 29.9466V25.3977C37.5529 25.4208 37.2375 25.6752 37.1092 25.793C36.448 26.3996 35.7762 26.9294 35.0865 27.4057Z" fill="#877600"/>
<path d="M26.6931 30.529L37.6801 41.2962V36.2017L30.8625 29.5198C30.4536 29.6596 30.0362 29.7921 29.602 29.9119C28.6506 30.1726 27.6761 30.3881 26.6931 30.529Z" fill="#877600"/>
<path d="M31.3419 57.6566C33.3067 59.1147 37.3447 62.3359 37.68 62.3905V59.5027L23.3374 45.447C23.6927 48.5367 24.8733 51.3048 26.916 53.8016C28.1691 55.3333 29.7628 56.4844 31.3419 57.6566Z" fill="#877600"/>
<path d="M23.2249 38.0684C23.2249 38.205 23.2228 38.3396 23.2228 38.4752L37.68 52.6444V47.5499L23.2238 33.3828C23.2238 34.9513 23.2249 36.5356 23.2249 38.0684Z" fill="#877600"/>
<path d="M37.6779 62.5991C37.5328 62.5991 37.4151 62.4813 37.4151 62.3363V24.9779C37.4151 24.8328 37.5328 24.7151 37.6779 24.7151C37.823 24.7151 37.9407 24.8328 37.9407 24.9779V62.3363C37.9407 62.4813 37.823 62.5991 37.6779 62.5991Z" fill="#472B29"/>
<path d="M62.1339 56.0153C62.0981 54.2933 63.0296 53.2032 64.5907 52.5976C64.4951 51.6567 63.4007 49.0138 62.8466 48.383C61.3486 49.0842 59.9304 48.978 58.7361 47.7985C57.523 46.6 57.4273 45.1672 58.1327 43.6375C56.8165 42.827 55.4057 42.2425 53.8971 41.8914C53.3872 43.3758 52.3969 44.3062 50.8452 44.4207C49.0065 44.5564 47.8144 43.606 47.1836 41.9061C45.674 42.2751 44.2684 42.8585 42.9638 43.6754C43.6818 45.1913 43.5882 46.6095 42.4087 47.809C41.2144 49.0243 39.7847 49.1368 38.2488 48.4303C37.4487 49.7465 36.8747 51.1542 36.5299 52.6628C38.0637 53.2252 38.9889 54.2776 39.0278 55.9102C39.0677 57.608 38.1531 58.7192 36.5762 59.3321C36.9389 60.8281 37.5307 62.22 38.3465 63.5236C39.8351 62.8602 41.2249 62.9706 42.3982 64.1113C43.5935 65.274 43.7385 66.6785 43.0773 68.1965C44.3935 68.9966 45.7949 69.5695 47.2929 69.9154C47.315 69.8712 47.3318 69.8439 47.3434 69.8155C47.8848 68.4036 49.1159 67.5006 50.5235 67.4827C52.029 67.4638 53.2758 68.3027 53.8519 69.7367C53.915 69.8933 53.9864 69.8902 54.121 69.8555C55.4772 69.5127 56.7555 68.9839 57.9571 68.2691C58.0223 68.2302 58.0854 68.185 58.1369 68.1513C57.5261 66.7742 57.5818 65.4685 58.5585 64.3299C59.7317 62.9633 61.2066 62.7625 62.8477 63.4605C63.6572 62.1517 64.2407 60.7566 64.596 59.2638C63.0842 58.6845 62.1686 57.648 62.1339 56.0153ZM50.5593 58.366C49.1926 58.3597 48.0909 57.2527 48.0972 55.8892C48.1035 54.5236 49.2168 53.4281 50.594 53.4418C51.9701 53.4544 53.0676 54.5951 53.0277 55.9764C52.9909 57.2611 51.947 58.3586 50.5593 58.366Z" fill="#EBEBEB"/>
<path d="M47.2719 70.439C47.2393 70.439 47.2067 70.4358 47.1741 70.4285C45.634 70.0731 44.1643 69.4739 42.804 68.6476C42.579 68.5109 42.4896 68.2292 42.5958 67.9884C43.2024 66.5934 43.0184 65.4485 42.0323 64.4887C41.0672 63.5499 39.9308 63.3943 38.5599 64.0051C38.3234 64.1124 38.0396 64.0262 37.9008 63.8033C37.0534 62.4492 36.4353 60.9859 36.0652 59.4573C36.0032 59.2008 36.1399 58.939 36.3859 58.8433C37.844 58.2767 38.5358 57.3221 38.5021 55.9239C38.4716 54.5835 37.7673 53.6773 36.3491 53.158C36.101 53.0665 35.958 52.8048 36.0179 52.5472C36.3722 50.9966 36.9715 49.5206 37.7999 48.1592C37.9376 47.931 38.2256 47.8417 38.4685 47.9552C39.8877 48.6081 41.0525 48.4378 42.0344 47.4422C43.0027 46.4571 43.1509 45.2997 42.4886 43.9025C42.375 43.6618 42.4591 43.3737 42.6852 43.2318C44.014 42.4002 45.4858 41.7821 47.0596 41.3973C47.3245 41.3342 47.5852 41.4741 47.6777 41.7253C48.2622 43.2991 49.2757 44.0213 50.8074 43.8973C52.0826 43.8037 52.931 43.092 53.4019 41.7232C53.4892 41.4688 53.7531 41.3185 54.018 41.3815C55.5634 41.7411 57.0415 42.3498 58.4102 43.1929C58.6373 43.3327 58.7235 43.6187 58.6121 43.8605C57.9561 45.2839 58.118 46.4508 59.1083 47.4285C60.0923 48.401 61.2424 48.5587 62.6269 47.91C62.8372 47.8122 63.0906 47.8648 63.244 48.0393C63.8727 48.7521 65.0112 51.4907 65.1174 52.5472C65.1416 52.7838 65.006 53.0056 64.7852 53.0907C63.3281 53.6553 62.6332 54.6088 62.6627 56.007C62.6911 57.3337 63.386 58.2389 64.7873 58.7761C65.0333 58.8707 65.171 59.1324 65.1111 59.3879C64.7484 60.9186 64.1387 62.383 63.2998 63.7402C63.1641 63.962 62.8866 64.0524 62.6469 63.9473C61.1362 63.306 59.9325 63.5436 58.9611 64.6748C58.1674 65.5999 58.057 66.668 58.6216 67.9401C58.7267 68.1777 58.6436 68.4542 58.426 68.595C58.3303 68.6602 58.2809 68.6928 58.2284 68.7233C56.9889 69.4613 55.6517 70.0153 54.2535 70.3675C53.69 70.5105 53.4566 70.1583 53.3672 69.9354C52.8816 68.7275 51.8397 68.0105 50.574 68.0105C50.5603 68.0105 50.5477 68.0105 50.533 68.0105C49.3366 68.0263 48.3032 68.7906 47.8375 70.0059C47.8291 70.0279 47.7902 70.1089 47.7786 70.1289C47.6788 70.3055 47.4738 70.439 47.2719 70.439ZM43.7291 67.9706C44.7593 68.554 45.8537 68.9998 46.9902 69.3004C47.6935 67.8696 49.0318 66.9771 50.5162 66.9571C50.5361 66.9571 50.554 66.9571 50.5729 66.9571C52.1898 66.9571 53.5344 67.8181 54.2282 69.2847C55.3794 68.9703 56.4675 68.5193 57.4872 67.9359C56.97 66.4662 57.1992 65.109 58.16 63.9883C59.3364 62.6164 60.8755 62.2169 62.6248 62.8119C63.2157 61.7848 63.6698 60.6978 63.9768 59.5698C62.4598 58.8486 61.644 57.6323 61.6093 56.027C61.5736 54.3228 62.3978 53.035 63.9989 52.2812C63.7781 51.3845 63.1189 49.7834 62.6627 49.0328C61.0406 49.652 59.5635 49.3576 58.3661 48.1739C57.1666 46.9901 56.8617 45.5047 57.4715 43.8594C56.4422 43.2686 55.35 42.8197 54.2167 42.5159C53.568 43.9961 52.4232 44.8329 50.881 44.9464C49.0507 45.0842 47.6609 44.2494 46.8724 42.5316C45.7192 42.8523 44.63 43.3075 43.625 43.891C44.2421 45.511 43.9551 46.9859 42.7819 48.1791C41.595 49.386 40.1116 49.6982 38.4685 49.0938C37.8892 50.1198 37.4456 51.2131 37.146 52.3506C38.685 53.0571 39.5135 54.2755 39.5513 55.8998C39.5923 57.5923 38.7807 58.877 37.1975 59.6371C37.5097 60.764 37.967 61.849 38.5652 62.8719C40.1526 62.3084 41.5981 62.6027 42.764 63.736C43.9583 64.8966 44.2873 66.3537 43.7291 67.9706ZM50.5572 58.8928C49.754 58.8885 49.0023 58.5742 48.4399 58.0076C47.8753 57.4409 47.5663 56.6882 47.5705 55.8882C47.5747 55.0882 47.889 54.3397 48.4578 53.7793C49.0297 53.2148 49.8118 52.8962 50.5982 52.9173C51.4056 52.9246 52.1583 53.2484 52.7186 53.8308C53.28 54.4143 53.5765 55.1807 53.5533 55.9923C53.506 57.6091 52.193 58.8833 50.5614 58.8928C50.5603 58.8928 50.5593 58.8928 50.5572 58.8928ZM50.5687 53.9685C50.0494 53.9685 49.5627 54.1662 49.1958 54.5278C48.8278 54.8905 48.6239 55.3752 48.6218 55.8924C48.6197 56.4107 48.8194 56.8985 49.1852 57.2664C49.5511 57.6344 50.0378 57.8383 50.5572 57.8415C51.6179 57.8341 52.4716 57.0089 52.502 55.9618C52.5178 55.4361 52.3254 54.9378 51.9617 54.5604C51.5979 54.1841 51.1101 53.9738 50.5877 53.9696C50.5824 53.9685 50.5761 53.9685 50.5687 53.9685Z" fill="#472B29"/>
<path d="M59.491 53.7441C58.2442 48.8956 53.2621 45.9667 48.3642 47.2009C43.4663 48.4351 40.5059 53.3656 41.7527 58.2141C42.9995 63.0627 47.9815 65.9915 52.8795 64.7573C57.7784 63.5231 60.7378 58.5926 59.491 53.7441ZM52.4253 62.9891C48.5135 63.9752 44.5354 61.635 43.5399 57.7631C42.5443 53.8913 44.9076 49.9542 48.8194 48.9681C52.7312 47.982 56.5505 50.4399 57.5461 54.3118C58.5417 58.1837 56.3371 62.004 52.4253 62.9891Z" fill="#33617E"/>
<path d="M50.5949 63.5194C47.276 63.5194 44.2431 61.277 43.3884 57.9171C42.3771 53.9443 44.7866 49.8874 48.7594 48.8761C50.6822 48.3841 52.6838 48.6743 54.3922 49.6887C56.0994 50.7032 57.3095 52.3222 57.7994 54.2471C58.8107 58.2199 56.4012 62.2768 52.4284 63.2881C51.8165 63.4448 51.2015 63.5194 50.5949 63.5194ZM52.3642 63.0337H52.3706H52.3642ZM50.6065 49.1694C50.0346 49.1694 49.4585 49.2409 48.8887 49.386C45.1966 50.3269 42.9574 54.0947 43.8972 57.7878C44.8381 61.4799 48.6059 63.7181 52.2991 62.7793C55.9912 61.8384 58.2304 58.0706 57.2906 54.3775C56.8343 52.5892 55.7105 51.0838 54.123 50.1418C53.0423 49.4985 51.8333 49.1694 50.6065 49.1694ZM41.9618 53.1191C41.9324 53.1191 41.9019 53.1138 41.8725 53.1033C41.7358 53.0539 41.6653 52.9046 41.7148 52.7669C42.7745 49.817 45.2187 47.5956 48.2527 46.8229C48.3904 46.7914 48.5376 46.8724 48.5723 47.0132C48.608 47.1541 48.5229 47.2971 48.382 47.3328C45.5172 48.0624 43.2097 50.1608 42.2099 52.9467C42.17 53.0528 42.069 53.1191 41.9618 53.1191Z" fill="#472B29"/>
<path d="M50.7874 65.2175C49.8423 65.2175 48.8783 65.0787 47.9227 64.7948C44.6658 63.8277 42.2489 61.3845 41.4552 58.2601C41.4194 58.1192 41.5046 57.9762 41.6455 57.9405C41.7842 57.9058 41.9304 57.9888 41.965 58.1308C42.7125 61.0744 44.9959 63.3767 48.074 64.2913C51.1743 65.2101 54.3702 64.5226 56.6262 62.4452C56.7335 62.3454 56.8996 62.3538 56.9973 62.461C57.0962 62.5682 57.0888 62.7333 56.9816 62.8321C55.2848 64.3943 53.0908 65.2175 50.7874 65.2175Z" fill="#472B29"/>
<path d="M58.5974 60.3257C58.4081 60.6716 58.1989 61.0059 57.9677 61.3244L58.5974 60.3257Z" fill="#A2A2CC"/>
<path d="M57.9676 61.5881C57.914 61.5881 57.8604 61.5713 57.8141 61.5387C57.6975 61.4536 57.6701 61.2896 57.7542 61.1708C57.9781 60.8606 58.1842 60.5337 58.3661 60.1994C58.4365 60.0711 58.5973 60.027 58.7235 60.0943C58.8507 60.1636 58.897 60.3245 58.8286 60.4517C58.6352 60.8039 58.4176 61.1497 58.1821 61.4788C58.1295 61.5503 58.0486 61.5881 57.9676 61.5881Z" fill="#472B29"/>
<path d="M59.4909 57.9695C59.3658 58.5183 59.1892 59.0555 58.9653 59.5716L59.4909 57.9695Z" fill="#A2A2CC"/>
<path d="M58.9653 59.8328C58.9306 59.8328 58.8949 59.8254 58.8602 59.8107C58.7267 59.7529 58.6657 59.5983 58.7235 59.4648C58.9411 58.9623 59.1135 58.4388 59.2334 57.91C59.267 57.7681 59.411 57.685 59.5488 57.7123C59.6907 57.7449 59.779 57.8858 59.7464 58.0277C59.6181 58.5891 59.4352 59.1442 59.205 59.6751C59.164 59.7728 59.0673 59.8328 58.9653 59.8328ZM59.4352 53.9456C59.3185 53.9456 59.2102 53.8667 59.1808 53.7479C58.4439 50.8527 56.315 48.5346 53.4902 47.5496C53.3525 47.5012 53.281 47.352 53.3283 47.2153C53.3767 47.0776 53.526 47.0092 53.6626 47.0534C56.6567 48.0984 58.9085 50.5531 59.6896 53.6197C59.7254 53.7606 59.6402 53.9035 59.4994 53.9393C59.4783 53.9435 59.4563 53.9456 59.4352 53.9456Z" fill="#472B29"/>
<path d="M53.8235 49.4487L56.2541 48.8611L53.8235 49.4487Z" fill="#A2A2CC"/>
<path d="M53.8234 49.5805C53.7635 49.5805 53.711 49.5405 53.6962 49.4796C53.6784 49.4091 53.7215 49.3376 53.793 49.3219L56.2235 48.7331C56.294 48.7142 56.3654 48.7584 56.3812 48.8299C56.3991 48.9003 56.356 48.9718 56.2845 48.9876L53.8539 49.5763C53.8434 49.5794 53.834 49.5805 53.8234 49.5805Z" fill="#472B29"/>
<path d="M55.9428 50.8455L57.771 50.5427L55.9428 50.8455Z" fill="#A2A2CC"/>
<path d="M55.9419 50.9761C55.8777 50.9761 55.8231 50.9309 55.8125 50.8668C55.7999 50.7953 55.8483 50.7269 55.9208 50.7154L57.749 50.4137C57.8194 50.4 57.8888 50.4494 57.9004 50.5219C57.913 50.5934 57.8647 50.6618 57.7921 50.6733L55.9639 50.975C55.9566 50.975 55.9492 50.9761 55.9419 50.9761Z" fill="#472B29"/>
<path d="M57.1276 52.721L58.9821 52.5212L57.1276 52.721Z" fill="#A2A2CC"/>
<path d="M57.1277 52.8525C57.0614 52.8525 57.0047 52.802 56.9973 52.7358C56.9889 52.6632 57.0415 52.598 57.113 52.5907L58.9674 52.3909C58.9727 52.3899 58.9779 52.3899 58.9821 52.3899C59.0484 52.3899 59.1051 52.4404 59.1125 52.5066C59.1209 52.5791 59.0683 52.6443 58.9969 52.6517L57.1424 52.8514C57.1371 52.8525 57.1319 52.8525 57.1277 52.8525Z" fill="#472B29"/>
<path d="M47.09 47.5984L47.2729 49.2962L47.09 47.5984Z" fill="#A2A2CC"/>
<path d="M47.2729 49.4277C47.2066 49.4277 47.1499 49.3772 47.1425 49.311L46.9596 47.6132C46.9512 47.5406 47.0037 47.4755 47.0752 47.4681C47.0805 47.467 47.0857 47.467 47.09 47.467C47.1562 47.467 47.213 47.5175 47.2203 47.5837L47.4032 49.2816C47.4116 49.3541 47.3591 49.4193 47.2876 49.4266C47.2823 49.4277 47.2771 49.4277 47.2729 49.4277Z" fill="#472B29"/>
<path d="M45.286 48.55L45.8464 50.4266L45.286 48.55Z" fill="#A2A2CC"/>
<path d="M45.8464 50.5581C45.7896 50.5581 45.737 50.5213 45.7202 50.4645L45.1609 48.588C45.1399 48.5186 45.1809 48.445 45.2492 48.424C45.326 48.4093 45.3933 48.444 45.4132 48.5123L45.9725 50.3888C45.9935 50.4582 45.9525 50.5318 45.8842 50.5528C45.8705 50.556 45.859 50.5581 45.8464 50.5581Z" fill="#472B29"/>
<path d="M43.4767 50.207L44.5795 51.8407L43.4767 50.207Z" fill="#A2A2CC"/>
<path d="M44.5795 51.9727C44.5374 51.9727 44.4964 51.9517 44.4701 51.9149L43.3674 50.2812C43.3264 50.2202 43.3432 50.1382 43.402 50.0982C43.462 50.0572 43.544 50.0741 43.585 50.1329L44.6878 51.7666C44.7288 51.8276 44.7119 51.9096 44.6531 51.9496C44.631 51.9653 44.6047 51.9727 44.5795 51.9727Z" fill="#472B29"/>
<path d="M42.1595 59.3618L44.0403 59.2651L42.1595 59.3618Z" fill="#A2A2CC"/>
<path d="M42.1596 59.4944C42.0902 59.4944 42.0323 59.4397 42.0281 59.3703C42.025 59.2978 42.0807 59.2358 42.1522 59.2316L44.0329 59.1338C44.0361 59.1338 44.0382 59.1338 44.0403 59.1338C44.1097 59.1338 44.1675 59.1885 44.1717 59.2578C44.1749 59.3304 44.1191 59.3924 44.0477 59.3966L42.1669 59.4944C42.1638 59.4944 42.1617 59.4944 42.1596 59.4944Z" fill="#472B29"/>
<path d="M43.2928 61.4041L45.1178 60.8606L43.2928 61.4041Z" fill="#A2A2CC"/>
<path d="M43.2917 61.5351C43.2349 61.5351 43.1824 61.4983 43.1655 61.4415C43.1445 61.3721 43.1855 61.2985 43.2538 61.2775L45.0789 60.7329C45.1556 60.7172 45.2218 60.7529 45.2429 60.8212C45.2639 60.8906 45.2229 60.9642 45.1546 60.9852L43.3295 61.5298C43.3169 61.533 43.3043 61.5351 43.2917 61.5351Z" fill="#472B29"/>
<path d="M45.2555 63.1112L46.7956 62.3196L45.2555 63.1112Z" fill="#A2A2CC"/>
<path d="M45.2545 63.2422C45.2072 63.2422 45.1609 63.2169 45.1378 63.1707C45.1052 63.1065 45.1304 63.0266 45.1956 62.9941L46.7368 62.2024C46.7988 62.172 46.8797 62.194 46.9134 62.2603C46.946 62.3244 46.9207 62.4043 46.8556 62.4369L45.3144 63.2285C45.2955 63.2369 45.2755 63.2422 45.2545 63.2422Z" fill="#472B29"/>
<path d="M47.7681 64.2863L48.9066 63.1982L47.7681 64.2863Z" fill="#A2A2CC"/>
<path d="M47.7681 64.4177C47.7334 64.4177 47.6998 64.404 47.6725 64.3767C47.623 64.3241 47.6241 64.2411 47.6777 64.1906L48.8163 63.1025C48.8678 63.0542 48.9508 63.0542 49.0023 63.1078C49.0517 63.1604 49.0507 63.2434 48.9971 63.2939L47.8585 64.3819C47.8344 64.4061 47.8007 64.4177 47.7681 64.4177Z" fill="#472B29"/>
<path d="M50.4803 64.9452L51.3634 63.2979L50.4803 64.9452Z" fill="#A2A2CC"/>
<path d="M50.4804 65.0755C50.4583 65.0755 50.4383 65.0703 50.4173 65.0598C50.3532 65.0251 50.33 64.9462 50.3637 64.881L51.2478 63.2347C51.2825 63.1696 51.3592 63.1475 51.4265 63.1811C51.4907 63.2158 51.5138 63.2947 51.4801 63.3598L50.596 65.0062C50.5729 65.0514 50.5277 65.0755 50.4804 65.0755Z" fill="#472B29"/>
<path d="M53.4062 64.4738L53.5449 62.7434L53.4062 64.4738Z" fill="#A2A2CC"/>
<path d="M53.4061 64.6053C53.403 64.6053 53.3988 64.6053 53.3956 64.6053C53.3231 64.599 53.2695 64.5359 53.2747 64.4634L53.4135 62.733C53.4198 62.6615 53.4797 62.6173 53.5554 62.6121C53.6279 62.6184 53.6816 62.6814 53.6763 62.754L53.5375 64.4844C53.5312 64.5527 53.4745 64.6053 53.4061 64.6053Z" fill="#472B29"/>
<path d="M49.2493 46.8708C49.8065 46.7941 50.371 46.7699 50.9335 46.7972L49.2493 46.8708Z" fill="#A2A2CC"/>
<path d="M49.2493 47.1337C49.12 47.1337 49.0075 47.038 48.9886 46.9066C48.9686 46.7615 49.0695 46.6291 49.2135 46.6102C49.7854 46.5324 50.3668 46.504 50.945 46.5345C51.0901 46.5418 51.2015 46.6648 51.1952 46.8099C51.1879 46.955 51.0691 47.0622 50.9198 47.0601C50.3731 47.0328 49.8243 47.0591 49.284 47.1316C49.2735 47.1327 49.2609 47.1337 49.2493 47.1337Z" fill="#472B29"/>
</svg>
