<svg width="68" height="85" viewBox="0 0 68 85" fill="none" xmlns="http://www.w3.org/2000/svg">
<path d="M56.0262 16C55.754 16 55.493 16.1081 55.3005 16.3006C55.1081 16.493 54.9999 16.7541 54.9999 17.0263C54.9999 17.2984 55.1081 17.5595 55.3005 17.7519C55.493 17.9444 55.754 18.0525 56.0262 18.0525C56.2984 18.0525 56.5594 17.9444 56.7519 17.7519C56.9443 17.5595 57.0524 17.2984 57.0524 17.0263C57.0524 16.7541 56.9443 16.493 56.7519 16.3006C56.5594 16.1081 56.2984 16 56.0262 16Z" fill="#FAE348"/>
<path d="M63.9999 44C62.9391 44 61.9217 44.4214 61.1715 45.1716C60.4214 45.9217 59.9999 46.9391 59.9999 48C59.9999 49.0609 60.4214 50.0783 61.1715 50.8284C61.9217 51.5786 62.9391 52 63.9999 52C65.0608 52 66.0782 51.5786 66.8284 50.8284C67.5785 50.0783 67.9999 49.0609 67.9999 48C67.9999 46.9391 67.5785 45.9217 66.8284 45.1716C66.0782 44.4214 65.0608 44 63.9999 44Z" fill="#FAE348"/>
<path d="M2.0525 14C1.50814 14 0.986081 14.2162 0.601162 14.6012C0.216244 14.9861 0 15.5081 0 16.0525C0 16.5969 0.216244 17.1189 0.601162 17.5038C0.986081 17.8888 1.50814 18.105 2.0525 18.105C2.59686 18.105 3.11892 17.8888 3.50384 17.5038C3.88876 17.1189 4.105 16.5969 4.105 16.0525C4.105 15.5081 3.88876 14.9861 3.50384 14.6012C3.11892 14.2162 2.59686 14 2.0525 14Z" fill="#FAE348"/>
<circle cx="43" cy="83" r="2" fill="#FAE348"/>
<circle cx="8.5" cy="20.5" r="3.5" fill="#FAE348"/>
<path d="M6.36749 77.9424C5.82313 77.9424 5.30107 78.1586 4.91615 78.5435C4.53123 78.9285 4.31499 79.4505 4.31499 79.9949C4.31499 80.5392 4.53123 81.0613 4.91615 81.4462C5.30107 81.8311 5.82313 82.0474 6.36749 82.0474C6.91185 82.0474 7.43391 81.8311 7.81883 81.4462C8.20375 81.0613 8.41999 80.5392 8.41999 79.9949C8.41999 79.4505 8.20375 78.9285 7.81883 78.5435C7.43391 78.1586 6.91185 77.9424 6.36749 77.9424Z" fill="#FAE348"/>
<circle cx="58.5" cy="1.5" r="1.5" fill="#FAE348"/>
<path d="M24.1786 71.836L20.1146 65.6672L12.6948 67.1398L21.7638 44.9646L33.2476 49.6607L24.1786 71.836Z" fill="#33617E"/>
<path d="M24.3273 73.3679L19.78 66.4653L11.5238 68.1042L21.3707 44.0273L34.1834 49.2674L24.3273 73.3679ZM20.4491 64.8684L24.0297 70.3035L32.3105 50.0545L22.1568 45.9023L13.8647 66.1749L20.4491 64.8684Z" fill="#472B29"/>
<path d="M43.4557 71.836L47.5196 65.6672L54.9394 67.1398L45.8705 44.9646L34.3867 49.6607L43.4557 71.836Z" fill="#33617E"/>
<path d="M43.3068 73.3678L33.4507 49.2684L46.2634 44.0283L56.1103 68.1052L47.8541 66.4663L43.3068 73.3678ZM35.3236 50.0534L43.6044 70.3024L47.185 64.8674L53.7684 66.1728L45.4763 45.9002L35.3236 50.0534Z" fill="#472B29"/>
<path d="M37.6511 56.4077C37.3094 56.4077 36.979 56.3328 36.6701 56.1829L35.4242 55.5805C34.9265 55.3393 34.3702 55.2121 33.8171 55.2121C33.2639 55.2121 32.7077 55.3393 32.2089 55.5805L30.9641 56.1829C30.6552 56.3328 30.3247 56.4077 29.983 56.4077C29.317 56.4087 28.6889 56.1172 28.2599 55.6092L27.3661 54.5512C26.6641 53.7189 25.6368 53.2427 24.5469 53.2427C24.5469 53.2427 23.0435 53.2889 23.0425 53.2889C21.9741 53.2889 21.0864 52.6208 20.8083 51.6633L20.4224 50.3333C20.1064 49.2444 19.3223 48.3742 18.2714 47.9442L16.9886 47.4218C16.0352 47.0329 15.4667 46.0477 15.6062 45.0276L15.7951 43.6565C15.95 42.5317 15.5878 41.4172 14.8017 40.5993L13.8431 39.6008C13.1299 38.8567 13.0109 37.7258 13.5537 36.8504L14.2834 35.6743C14.8817 34.7107 15.0049 33.5448 14.62 32.4775L14.15 31.1742C13.8011 30.2054 14.152 29.1238 15.0038 28.545L16.1491 27.7671C17.0882 27.1298 17.6741 26.1158 17.7562 24.9828L17.8578 23.6015C17.9328 22.5742 18.6932 21.7296 19.7071 21.548L21.07 21.3037C22.1866 21.1036 23.1348 20.414 23.6716 19.4123L24.3253 18.1932C24.7183 17.4584 25.4798 17.0027 26.3131 17.0027C26.4937 17.0027 26.6754 17.0243 26.8509 17.0674L28.1953 17.3978C28.4836 17.4686 28.7802 17.5045 29.0768 17.5045C29.8917 17.5045 30.6952 17.2285 31.3397 16.7287L32.4337 15.88C32.8339 15.5721 33.3122 15.4089 33.8171 15.4089C34.322 15.4089 34.8002 15.5721 35.1994 15.882L36.2934 16.7307C36.9369 17.2305 37.7415 17.5066 38.5563 17.5066C38.8539 17.5066 39.1505 17.4707 39.4389 17.3999L40.7833 17.0694C40.9598 17.0263 41.1414 17.0048 41.321 17.0048C42.1533 17.0048 42.9148 17.4604 43.3078 18.1942L43.9626 19.4144C44.4983 20.415 45.4465 21.1036 46.5631 21.3047L47.926 21.549C48.9399 21.7306 49.7004 22.5752 49.7753 23.6025L49.8769 24.9839C49.96 26.1168 50.545 27.1308 51.484 27.7681L52.6283 28.545C53.48 29.1227 53.831 30.2044 53.4821 31.1742L53.0121 32.4775C52.6272 33.5448 52.7504 34.7107 53.3487 35.6743L54.0783 36.8504C54.6212 37.7258 54.5022 38.8567 53.7889 39.6008L52.8304 40.5993C52.0443 41.4182 51.6821 42.5328 51.837 43.6565L52.0258 45.0286C52.1654 46.0477 51.5969 47.0329 50.6425 47.4218L49.3607 47.9442C48.3098 48.3742 47.5257 49.2455 47.2096 50.3333L46.8238 51.6633C46.5457 52.6208 45.6559 53.2899 44.6594 53.2899L43.0851 53.2427C41.9953 53.2427 40.968 53.7199 40.266 54.5522L39.3732 55.6082C38.9453 56.1172 38.3172 56.4077 37.6511 56.4077Z" fill="#FAE348"/>
<path d="M33.817 16.1269C34.1608 16.1269 34.4871 16.2388 34.7591 16.4492L35.852 17.2979C36.6217 17.8952 37.5813 18.2236 38.5552 18.2236C38.9092 18.2236 39.2643 18.1805 39.6091 18.0953L40.9535 17.7648C41.0746 17.7351 41.1978 17.7207 41.3209 17.7207C41.8874 17.7207 42.4067 18.0317 42.6746 18.5314L43.3283 19.7517C43.9687 20.9472 45.1006 21.7693 46.4358 22.0094L47.7976 22.2537C48.4883 22.3778 49.0065 22.9536 49.0578 23.6535L49.1584 25.0338C49.2569 26.3864 49.9568 27.5994 51.0785 28.3599L52.2238 29.1377C52.8047 29.5318 53.0438 30.2687 52.8057 30.9296L52.3367 32.2319C51.8769 33.5065 52.0237 34.8991 52.738 36.0516L53.4676 37.2277C53.8381 37.825 53.757 38.5947 53.2706 39.1016L52.3121 40.1002C51.3731 41.0782 50.941 42.4092 51.1247 43.7536L51.3135 45.1247C51.409 45.8205 51.0221 46.4906 50.3714 46.7554L49.0897 47.2778C47.8345 47.7899 46.8976 48.8295 46.5189 50.1318L46.133 51.4608C45.9442 52.1124 45.3387 52.5681 44.6111 52.5681C44.6101 52.5681 44.6101 52.5681 44.609 52.5681L43.2246 52.524L43.0861 52.5219C41.7848 52.5219 40.5564 53.0925 39.7169 54.0859L38.8241 55.143C38.5316 55.4898 38.1036 55.6879 37.649 55.6879C37.416 55.6879 37.1923 55.6366 36.9819 55.535L35.7361 54.9326C35.1408 54.6442 34.4769 54.4923 33.8149 54.4923C33.154 54.4923 32.489 54.6442 31.8948 54.9326L30.6489 55.535C30.4386 55.6366 30.2138 55.6879 29.9819 55.6879C29.5283 55.6879 29.0993 55.4898 28.8068 55.143L27.914 54.0859C27.0745 53.0915 25.8461 52.5219 24.5448 52.5219L24.4052 52.524L22.9726 52.5691C22.2942 52.5691 21.6877 52.1135 21.4989 51.4608L21.113 50.1318C20.7354 48.8295 19.7984 47.7888 18.5433 47.2778L17.2615 46.7554C16.6119 46.4906 16.224 45.8195 16.3194 45.1247L16.5072 43.7536C16.6919 42.4103 16.2588 41.0792 15.3198 40.1002L14.3613 39.1016C13.8749 38.5947 13.7948 37.825 14.1643 37.2287L14.8939 36.0526C15.6082 34.9002 15.755 33.5086 15.2952 32.2329L14.8262 30.9306C14.5881 30.2697 14.8272 29.5339 15.4081 29.1388L16.5534 28.3609C17.6751 27.5994 18.375 26.3874 18.4745 25.0348L18.5751 23.6545C18.6264 22.9546 19.1447 22.3789 19.8353 22.2547L21.1982 22.0104C22.5323 21.7703 23.6653 20.9472 24.3047 19.7527L24.9584 18.5325C25.2262 18.0327 25.7455 17.7217 26.312 17.7217C26.4352 17.7217 26.5583 17.7371 26.6794 17.7659L28.0238 18.0963C28.3686 18.1815 28.7227 18.2246 29.0767 18.2246C30.0506 18.2246 31.0112 17.8962 31.7799 17.2989L32.8728 16.4502C33.1468 16.2388 33.4732 16.1269 33.817 16.1269ZM33.817 14.6902C33.1735 14.6902 32.5301 14.8985 31.9944 15.3141L30.9004 16.1629C30.3739 16.5713 29.7315 16.7868 29.0778 16.7868C28.8407 16.7868 28.6026 16.7581 28.3676 16.7006L27.0232 16.3702C26.7861 16.3117 26.548 16.284 26.313 16.284C25.2365 16.284 24.2195 16.871 23.693 17.8531L23.0393 19.0733C22.6103 19.8738 21.8386 20.4351 20.9447 20.5952L19.5819 20.8395C18.2457 21.0796 17.242 22.1941 17.1424 23.5488L17.0419 24.9291C16.9752 25.8353 16.499 26.6614 15.7467 27.1715L14.6015 27.9493C13.4787 28.7129 13.0149 30.1394 13.4746 31.416L13.9436 32.7183C14.2515 33.5732 14.152 34.5215 13.6727 35.2932L12.943 36.4693C12.2267 37.6238 12.3837 39.115 13.3238 40.095L14.2823 41.0936C14.9114 41.7494 15.2059 42.6566 15.0828 43.5566L14.8939 44.9277C14.7092 46.2731 15.4594 47.5723 16.7166 48.0844L17.9983 48.6068C18.8399 48.9495 19.4782 49.6587 19.7307 50.531L20.1165 51.86C20.486 53.1336 21.6518 54.0038 22.9705 54.0038C23.0023 54.0038 23.0342 54.0038 23.066 54.0028L24.4494 53.9587C24.4812 53.9576 24.512 53.9576 24.5427 53.9576C25.4171 53.9576 26.2484 54.3425 26.8149 55.0126L27.7077 56.0697C28.2875 56.7552 29.125 57.1246 29.9798 57.1246C30.417 57.1246 30.8593 57.0282 31.2729 56.8281L32.5188 56.2257C32.9272 56.0276 33.3706 55.928 33.8139 55.928C34.2572 55.928 34.6996 56.0276 35.109 56.2257L36.3549 56.8281C36.7685 57.0282 37.2108 57.1246 37.648 57.1246C38.5028 57.1246 39.3413 56.7562 39.9201 56.0697L40.8129 55.0126C41.3784 54.3425 42.2107 53.9576 43.0851 53.9576C43.1158 53.9576 43.1477 53.9576 43.1784 53.9587L44.5618 54.0028C44.5936 54.0038 44.6255 54.0038 44.6573 54.0038C45.975 54.0038 47.1418 53.1325 47.5113 51.86L47.8971 50.531C48.1506 49.6587 48.789 48.9495 49.6295 48.6068L50.9112 48.0844C52.1684 47.5713 52.9186 46.272 52.7339 44.9277L52.545 43.5566C52.4219 42.6566 52.7164 41.7494 53.3455 41.0936L54.304 40.095C55.2441 39.115 55.4011 37.6238 54.6848 36.4693L53.9551 35.2932C53.4758 34.5215 53.3763 33.5722 53.6842 32.7183L54.1532 31.416C54.614 30.1383 54.1501 28.7119 53.0264 27.9493L51.8811 27.1715C51.1298 26.6614 50.6526 25.8353 50.5859 24.9291L50.4853 23.5488C50.3868 22.1952 49.3821 21.0796 48.046 20.8395L46.6831 20.5952C45.7892 20.4341 45.0175 19.8738 44.5885 19.0733L43.9348 17.8531C43.4083 16.871 42.3913 16.284 41.3148 16.284C41.0798 16.284 40.8406 16.3117 40.6046 16.3702L39.2602 16.7006C39.0252 16.7581 38.7871 16.7868 38.55 16.7868C37.8963 16.7868 37.2539 16.5713 36.7274 16.1629L35.6334 15.3141C35.1039 14.8985 34.4604 14.6902 33.817 14.6902Z" fill="#472B29"/>
<path d="M48.9552 32.1074C48.7356 32.1074 48.5324 31.9647 48.4647 31.7441C48.397 31.5214 48.3231 31.3018 48.2451 31.0842C47.9423 30.2386 47.5606 29.4145 47.109 28.6345C46.9664 28.3903 47.0505 28.0762 47.2958 27.9336C47.5411 27.7879 47.8541 27.8741 47.9967 28.1214C48.4791 28.9537 48.8875 29.8342 49.2108 30.7373C49.2939 30.9692 49.3719 31.2043 49.4458 31.4434C49.5289 31.7143 49.377 32.0017 49.1051 32.0848C49.0558 32.1002 49.0045 32.1074 48.9552 32.1074ZM18.3104 33.2126C18.2734 33.2126 18.2365 33.2085 18.1995 33.2003C17.9224 33.1387 17.748 32.8647 17.8096 32.5876C19.4516 25.1668 26.1838 19.78 33.818 19.78C38.509 19.78 42.9845 21.7894 46.0961 25.2941C46.3311 25.5609 46.5579 25.8318 46.7755 26.111C46.9489 26.3347 46.9099 26.6569 46.6862 26.8314C46.4615 27.0038 46.1392 26.9648 45.9658 26.7421C45.7616 26.4794 45.5491 26.2239 45.3275 25.9745C42.4108 22.6905 38.2155 20.8063 33.817 20.8063C26.661 20.8063 20.3495 25.8544 18.8112 32.8103C18.7578 33.0495 18.5464 33.2126 18.3104 33.2126ZM33.817 52.4672C25.8256 52.4672 19.0339 46.7786 17.6669 38.9412C17.6187 38.662 17.8054 38.3962 18.0846 38.348C18.3699 38.2885 18.6295 38.4865 18.6788 38.7647C19.9585 46.1095 26.3254 51.4409 33.817 51.4409C42.2897 51.4409 49.1831 44.5702 49.1831 36.1241C49.1831 35.3544 49.1256 34.5806 49.0117 33.8253C48.9696 33.5462 49.1625 33.2845 49.4427 33.2424C49.726 33.2034 49.9846 33.3922 50.0267 33.6734C50.1478 34.479 50.2093 35.3041 50.2093 36.1251C50.2093 45.1356 42.8562 52.4672 33.817 52.4672ZM50.353 63.6492C50.2514 63.6492 50.156 63.5886 50.1149 63.4891L49.1041 60.985C49.0507 60.8537 49.1143 60.7049 49.2457 60.6515C49.375 60.5961 49.5258 60.6608 49.5802 60.7931L50.5911 63.2972C50.6445 63.4285 50.5808 63.5774 50.4495 63.6307C50.4177 63.643 50.3858 63.6492 50.353 63.6492Z" fill="#472B29"/>
<path d="M48.6053 59.3175C48.5037 59.3175 48.4083 59.257 48.3672 59.1574L46.0397 53.3919C45.9863 53.2606 46.0499 53.1118 46.1813 53.0584C46.3106 53.002 46.4615 53.0676 46.5159 53.2L48.8434 58.9655C48.8968 59.0969 48.8331 59.2457 48.7018 59.299C48.6699 59.3113 48.6371 59.3175 48.6053 59.3175Z" fill="#472B29"/>
<path d="M23.3966 66.3921C23.3627 66.3921 23.3288 66.3849 23.296 66.3716C23.1656 66.3151 23.1041 66.1653 23.1605 66.035L24.2165 63.5484C24.2719 63.417 24.4238 63.3605 24.5531 63.4119C24.6835 63.4683 24.745 63.6181 24.6886 63.7485L23.6326 66.2351C23.5915 66.3336 23.4961 66.3921 23.3966 66.3921Z" fill="#472B29"/>
<path d="M25.2233 62.0926C25.1895 62.0926 25.1556 62.0854 25.1228 62.072C24.9924 62.0156 24.9309 61.8658 24.9873 61.7354L25.5086 60.509C25.5641 60.3777 25.7159 60.3212 25.8452 60.3726C25.9756 60.429 26.0372 60.5788 25.9807 60.7092L25.4594 61.9355C25.4173 62.0351 25.3229 62.0926 25.2233 62.0926Z" fill="#472B29"/>
<path d="M26.3275 59.4931C26.2936 59.4931 26.2598 59.4859 26.2269 59.4726C26.0966 59.4162 26.035 59.2663 26.0915 59.136L27.4184 56.0111C27.4738 55.8797 27.6257 55.8243 27.755 55.8746C27.8854 55.931 27.9469 56.0808 27.8905 56.2112L26.5635 59.3361C26.5215 59.4357 26.4271 59.4931 26.3275 59.4931Z" fill="#472B29"/>
<path d="M31.9358 43.2029C31.5961 43.2029 31.2708 43.0787 31.0194 42.8539L24.3641 36.3167C24.1024 36.0827 23.9444 35.7513 23.9269 35.3921C23.9095 35.0329 24.0357 34.6881 24.282 34.4223C24.5406 34.1441 24.908 33.9841 25.2908 33.9841C25.6295 33.9841 25.9548 34.1072 26.2063 34.332L31.9225 40.0143L41.5189 30.5451C41.7786 30.3039 42.1111 30.1736 42.46 30.1736C42.8387 30.1736 43.1897 30.3234 43.4504 30.5943C43.7018 30.855 43.8342 31.1968 43.8239 31.557C43.8136 31.9172 43.6618 32.2517 43.3949 32.4991L32.8759 42.8324C32.6172 43.0725 32.2858 43.2029 31.9358 43.2029Z" fill="white"/>
<path d="M42.458 30.4306C42.7515 30.4306 43.045 30.5445 43.2636 30.7723C43.6844 31.2095 43.6639 31.8981 43.2185 32.3107L32.6953 42.6502C32.4829 42.8482 32.2088 42.9478 31.9359 42.9478C31.669 42.9478 31.4022 42.8534 31.1908 42.6645L24.5448 36.1345C24.0922 35.7302 24.0594 35.0416 24.4709 34.5972C24.6895 34.3611 24.9902 34.2411 25.2919 34.2411C25.5577 34.2411 25.8235 34.3345 26.0359 34.5233L31.9225 40.375L41.6996 30.7282C41.9121 30.5301 42.185 30.4306 42.458 30.4306ZM42.458 29.9175C42.0444 29.9175 41.6504 30.0714 41.3486 30.3516L31.9225 39.6525L26.3962 34.159C26.078 33.8737 25.6922 33.7269 25.2909 33.7269C24.8373 33.7269 24.4011 33.9168 24.0943 34.2462C23.8008 34.5633 23.6509 34.9738 23.6704 35.4028C23.691 35.8318 23.8798 36.2269 24.202 36.5152L30.8306 43.0278C31.1467 43.3111 31.5325 43.4589 31.9359 43.4589C32.3494 43.4589 32.7435 43.3049 33.0452 43.0237L43.5787 32.675C43.8855 32.3918 44.0672 31.9926 44.0795 31.5636C44.0918 31.1346 43.9338 30.7272 43.6341 30.4152C43.3293 30.1002 42.9003 29.9175 42.458 29.9175Z" fill="#472B29"/>
</svg>
