<svg width="85" height="85" viewBox="0 0 85 85" fill="none" xmlns="http://www.w3.org/2000/svg">
<path d="M67.25 2.5C67.9403 2.5 68.5 1.94036 68.5 1.25C68.5 0.559644 67.9403 0 67.25 0C66.5596 0 66 0.559644 66 1.25C66 1.94036 66.5596 2.5 67.25 2.5Z" fill="#FAE348"/>
<path d="M75 18C77.7614 18 80 15.7614 80 13C80 10.2386 77.7614 8 75 8C72.2385 8 70 10.2386 70 13C70 15.7614 72.2385 18 75 18Z" fill="#FAE348"/>
<path d="M13.5 16C14.8807 16 16 14.8807 16 13.5C16 12.1193 14.8807 11 13.5 11C12.1193 11 11 12.1193 11 13.5C11 14.8807 12.1193 16 13.5 16Z" fill="#FAE348"/>
<path d="M63.5 81C64.8807 81 66 79.8807 66 78.5C66 77.1193 64.8807 76 63.5 76C62.1193 76 61 77.1193 61 78.5C61 79.8807 62.1193 81 63.5 81Z" fill="#FAE348"/>
<path d="M5 72C7.76142 72 10 69.7614 10 67C10 64.2386 7.76142 62 5 62C2.23858 62 0 64.2386 0 67C0 69.7614 2.23858 72 5 72Z" fill="#FAE348"/>
<path d="M19.5 85C20.8807 85 22 83.8807 22 82.5C22 81.1193 20.8807 80 19.5 80C18.1193 80 17 81.1193 17 82.5C17 83.8807 18.1193 85 19.5 85Z" fill="#FAE348"/>
<path d="M3.99993 43.2493C4.69029 43.2493 5.24993 42.6896 5.24993 41.9993C5.24993 41.3089 4.69029 40.7493 3.99993 40.7493C3.30958 40.7493 2.74993 41.3089 2.74993 41.9993C2.74993 42.6896 3.30958 43.2493 3.99993 43.2493Z" fill="white"/>
<path d="M83.5 22C84.3284 22 85 21.3284 85 20.5C85 19.6716 84.3284 19 83.5 19C82.6715 19 82 19.6716 82 20.5C82 21.3284 82.6715 22 83.5 22Z" fill="#FAE348"/>
<path d="M42.75 38.2488V50.1238H43.505C44.1237 50.1238 44.625 50.625 44.625 51.2438V51.5038C44.625 52.1225 44.1237 52.6238 43.505 52.6238H42.75V55.1238H43.505C44.1237 55.1238 44.625 55.625 44.625 56.2438V56.5038C44.625 57.1225 44.1237 57.6238 43.505 57.6238H42.75V62.6238H43.505C44.1237 62.6238 44.625 63.125 44.625 63.7438V64.0038C44.625 64.6225 44.1237 65.1238 43.505 65.1238H42.75V67.6238L47.125 70.1238L50.25 67.6238V38.2488H42.75Z" fill="#33617E"/>
<path d="M47.1249 70.7493C47.0187 70.7493 46.9111 70.7218 46.8149 70.6668L42.4399 68.1668C42.2449 68.0555 42.1249 67.848 42.1249 67.6243V65.1243C42.1249 64.7793 42.4049 64.4993 42.7499 64.4993H43.5049C43.7774 64.4993 43.9999 64.2768 43.9999 64.0043V63.7443C43.9999 63.4718 43.7774 63.2493 43.5049 63.2493H42.7499C42.4049 63.2493 42.1249 62.9693 42.1249 62.6243V57.6243C42.1249 57.2793 42.4049 56.9993 42.7499 56.9993H43.5049C43.7774 56.9993 43.9999 56.7768 43.9999 56.5043V56.2443C43.9999 55.9718 43.7774 55.7493 43.5049 55.7493H42.7499C42.4049 55.7493 42.1249 55.4693 42.1249 55.1243V52.6243C42.1249 52.2793 42.4049 51.9993 42.7499 51.9993H43.5049C43.7774 51.9993 43.9999 51.7768 43.9999 51.5043V51.2443C43.9999 50.9718 43.7774 50.7493 43.5049 50.7493H42.7499C42.4049 50.7493 42.1249 50.4693 42.1249 50.1243V38.2493C42.1249 37.9043 42.4049 37.6243 42.7499 37.6243H50.2499C50.5949 37.6243 50.8749 37.9043 50.8749 38.2493V67.6243C50.8749 67.8143 50.7887 67.9943 50.6399 68.1118L47.5149 70.6118C47.4024 70.703 47.2637 70.7493 47.1249 70.7493ZM43.3749 67.2618L47.0661 69.3705L49.6249 67.3243V38.8743H43.3749V49.4993H43.5049C44.4674 49.4993 45.2499 50.2818 45.2499 51.2443V51.5043C45.2499 52.4668 44.4674 53.2493 43.5049 53.2493H43.3749V54.4993H43.5049C44.4674 54.4993 45.2499 55.2818 45.2499 56.2443V56.5043C45.2499 57.4668 44.4674 58.2493 43.5049 58.2493H43.3749V61.9993H43.5049C44.4674 61.9993 45.2499 62.7818 45.2499 63.7443V64.0043C45.2499 64.9668 44.4674 65.7493 43.5049 65.7493H43.3749V67.2618Z" fill="#472B29"/>
<path d="M46.4998 42.3748C39.4011 42.3748 33.6248 36.5985 33.6248 29.4998C33.6248 22.401 39.4011 16.6248 46.4998 16.6248C53.5998 16.6248 59.3748 22.401 59.3748 29.4998C59.3748 36.5985 53.5998 42.3748 46.4998 42.3748ZM46.4998 21.7498C44.9836 21.7498 43.7498 22.9835 43.7498 24.4998C43.7498 26.016 44.9836 27.2498 46.4998 27.2498C48.0161 27.2498 49.2498 26.016 49.2498 24.4998C49.2498 22.9835 48.0161 21.7498 46.4998 21.7498Z" fill="#FAE348"/>
<path d="M46.5 17.499C53.1162 17.499 58.5 22.8828 58.5 29.499C58.5 36.1153 53.1162 41.499 46.5 41.499C39.8837 41.499 34.5 36.1153 34.5 29.499C34.5 22.8828 39.8837 17.499 46.5 17.499ZM46.5 28.124C48.4987 28.124 50.125 26.4978 50.125 24.499C50.125 22.5003 48.4987 20.874 46.5 20.874C44.5012 20.874 42.875 22.5003 42.875 24.499C42.875 26.4978 44.5012 28.124 46.5 28.124ZM46.5 15.749C38.9062 15.749 32.75 21.9053 32.75 29.499C32.75 37.0928 38.9062 43.249 46.5 43.249C54.0937 43.249 60.25 37.0928 60.25 29.499C60.25 21.9053 54.0937 15.749 46.5 15.749ZM46.5 26.374C45.465 26.374 44.625 25.5353 44.625 24.499C44.625 23.4628 45.465 22.624 46.5 22.624C47.535 22.624 48.375 23.4628 48.375 24.499C48.375 25.5353 47.535 26.374 46.5 26.374Z" fill="#472B29"/>
<path d="M38.3751 46.9987H28.3751C28.2013 46.9987 28.0363 46.9275 27.9176 46.8L19.1676 37.425C18.9326 37.1725 18.9463 36.7775 19.1976 36.5412C19.4513 36.305 19.8463 36.32 20.0813 36.5712L28.6463 45.7487H38.3751C38.7201 45.7487 39.0001 46.0287 39.0001 46.3737C39.0001 46.7187 38.7201 46.9987 38.3751 46.9987Z" fill="#472B29"/>
<path d="M19.625 38.8738C21.0057 38.8738 22.125 37.7545 22.125 36.3738C22.125 34.9931 21.0057 33.8738 19.625 33.8738C18.2443 33.8738 17.125 34.9931 17.125 36.3738C17.125 37.7545 18.2443 38.8738 19.625 38.8738Z" fill="#FAE348"/>
<path d="M19.6249 39.4993C17.9024 39.4993 16.4999 38.098 16.4999 36.3743C16.4999 34.6505 17.9024 33.2493 19.6249 33.2493C21.3474 33.2493 22.7499 34.6505 22.7499 36.3743C22.7499 38.098 21.3474 39.4993 19.6249 39.4993ZM19.6249 34.4993C18.5912 34.4993 17.7499 35.3405 17.7499 36.3743C17.7499 37.408 18.5912 38.2493 19.6249 38.2493C20.6587 38.2493 21.4999 37.408 21.4999 36.3743C21.4999 35.3405 20.6587 34.4993 19.6249 34.4993Z" fill="#472B29"/>
<path d="M19.625 68.8745C19.4725 68.8745 19.3187 68.8183 19.1987 68.7058C18.9462 68.4708 18.9337 68.0745 19.1687 67.822L27.9187 58.447C28.0362 58.3208 28.2012 58.2495 28.375 58.2495H38.375C38.72 58.2495 39 58.5295 39 58.8745C39 59.2195 38.72 59.4995 38.375 59.4995H28.6462L20.0812 68.6758C19.9587 68.8083 19.7925 68.8745 19.625 68.8745Z" fill="#472B29"/>
<path d="M19.625 71.374C21.0057 71.374 22.125 70.2547 22.125 68.874C22.125 67.4933 21.0057 66.374 19.625 66.374C18.2443 66.374 17.125 67.4933 17.125 68.874C17.125 70.2547 18.2443 71.374 19.625 71.374Z" fill="#FAE348"/>
<path d="M19.6249 71.9993C17.9024 71.9993 16.4999 70.598 16.4999 68.8743C16.4999 67.1505 17.9024 65.7493 19.6249 65.7493C21.3474 65.7493 22.7499 67.1505 22.7499 68.8743C22.7499 70.598 21.3474 71.9993 19.6249 71.9993ZM19.6249 66.9993C18.5912 66.9993 17.7499 67.8405 17.7499 68.8743C17.7499 69.908 18.5912 70.7493 19.6249 70.7493C20.6587 70.7493 21.4999 69.908 21.4999 68.8743C21.4999 67.8405 20.6587 66.9993 19.6249 66.9993Z" fill="#472B29"/>
<path d="M38.3749 53.2485H13.3749C13.0299 53.2485 12.7499 52.9685 12.7499 52.6235C12.7499 52.2785 13.0299 51.9985 13.3749 51.9985H38.3749C38.7199 51.9985 38.9999 52.2785 38.9999 52.6235C38.9999 52.9685 38.7199 53.2485 38.3749 53.2485Z" fill="#472B29"/>
<path d="M15.8749 55.1238C17.2556 55.1238 18.3749 54.0045 18.3749 52.6238C18.3749 51.2431 17.2556 50.1238 15.8749 50.1238C14.4942 50.1238 13.3749 51.2431 13.3749 52.6238C13.3749 54.0045 14.4942 55.1238 15.8749 55.1238Z" fill="#FAE348"/>
<path d="M15.8749 55.7493C14.1524 55.7493 12.7499 54.348 12.7499 52.6243C12.7499 50.9005 14.1524 49.4993 15.8749 49.4993C17.5974 49.4993 18.9999 50.9005 18.9999 52.6243C18.9999 54.348 17.5974 55.7493 15.8749 55.7493ZM15.8749 50.7493C14.8412 50.7493 13.9999 51.5905 13.9999 52.6243C13.9999 53.658 14.8412 54.4993 15.8749 54.4993C16.9087 54.4993 17.7499 53.658 17.7499 52.6243C17.7499 51.5905 16.9087 50.7493 15.8749 50.7493Z" fill="#472B29"/>
<path d="M73.3749 68.8745C73.2074 68.8745 73.0412 68.8083 72.9187 68.6758L64.3536 59.4995H54.6249C54.2799 59.4995 53.9999 59.2195 53.9999 58.8745C53.9999 58.5295 54.2799 58.2495 54.6249 58.2495H64.6249C64.7986 58.2495 64.9636 58.3208 65.0811 58.4483L73.8311 67.8233C74.0661 68.0758 74.0537 68.4708 73.8012 68.707C73.6812 68.8183 73.5274 68.8745 73.3749 68.8745Z" fill="#472B29"/>
<path d="M73.3749 71.374C74.7556 71.374 75.8749 70.2547 75.8749 68.874C75.8749 67.4933 74.7556 66.374 73.3749 66.374C71.9942 66.374 70.8749 67.4933 70.8749 68.874C70.8749 70.2547 71.9942 71.374 73.3749 71.374Z" fill="#FAE348"/>
<path d="M73.375 71.9993C71.6512 71.9993 70.25 70.598 70.25 68.8743C70.25 67.1505 71.6512 65.7493 73.375 65.7493C75.0987 65.7493 76.5 67.1505 76.5 68.8743C76.5 70.598 75.0987 71.9993 73.375 71.9993ZM73.375 66.9993C72.3412 66.9993 71.5 67.8405 71.5 68.8743C71.5 69.908 72.3412 70.7493 73.375 70.7493C74.4087 70.7493 75.25 69.908 75.25 68.8743C75.25 67.8405 74.4087 66.9993 73.375 66.9993Z" fill="#472B29"/>
<path d="M64.6249 46.9989H54.6249C54.2799 46.9989 53.9999 46.7189 53.9999 46.3739C53.9999 46.0289 54.2799 45.7489 54.6249 45.7489H64.3536L72.9187 36.5727C73.1549 36.3202 73.5524 36.3064 73.8012 36.5427C74.0537 36.7777 74.0674 37.1739 73.8311 37.4264L65.0811 46.8014C64.9636 46.9277 64.7987 46.9989 64.6249 46.9989Z" fill="#472B29"/>
<path d="M73.3749 38.8738C74.7556 38.8738 75.8749 37.7545 75.8749 36.3738C75.8749 34.9931 74.7556 33.8738 73.3749 33.8738C71.9942 33.8738 70.8749 34.9931 70.8749 36.3738C70.8749 37.7545 71.9942 38.8738 73.3749 38.8738Z" fill="#FAE348"/>
<path d="M73.375 39.4993C71.6512 39.4993 70.25 38.098 70.25 36.3743C70.25 34.6505 71.6512 33.2493 73.375 33.2493C75.0987 33.2493 76.5 34.6505 76.5 36.3743C76.5 38.098 75.0987 39.4993 73.375 39.4993ZM73.375 34.4993C72.3412 34.4993 71.5 35.3405 71.5 36.3743C71.5 37.408 72.3412 38.2493 73.375 38.2493C74.4087 38.2493 75.25 37.408 75.25 36.3743C75.25 35.3405 74.4087 34.4993 73.375 34.4993Z" fill="#472B29"/>
<path d="M55.7938 28.5733C55.6388 28.5733 55.505 28.4583 55.4838 28.302C55.1925 26.087 54.09 24.0646 52.3825 22.6058C52.2513 22.4933 52.2363 22.297 52.3475 22.1658C52.4613 22.0345 52.6588 22.0195 52.7888 22.1308C54.615 23.6895 55.7925 25.8533 56.105 28.2208C56.1275 28.3921 56.0075 28.5495 55.835 28.572C55.82 28.572 55.8063 28.5733 55.7938 28.5733Z" fill="#472B29"/>
<path d="M54.4037 34.8545C54.3462 34.8545 54.2874 34.8383 54.2349 34.8058C54.0899 34.7133 54.0474 34.5195 54.1399 34.3745C54.8449 33.2708 55.2949 32.0545 55.4737 30.7595C55.4987 30.5895 55.6499 30.467 55.8262 30.4933C55.9974 30.517 56.1162 30.6745 56.0937 30.8458C55.9012 32.2308 55.4212 33.5308 54.6662 34.7108C54.6074 34.8033 54.5062 34.8545 54.4037 34.8545Z" fill="#472B29"/>
<path d="M46.4999 39.1865C44.0674 39.1865 41.7424 38.2815 39.9512 36.6377C39.8237 36.5215 39.8162 36.324 39.9324 36.1965C40.0512 36.069 40.2474 36.0615 40.3737 36.1777C42.0487 37.7152 44.2249 38.5615 46.4999 38.5615C48.7874 38.5615 50.9712 37.7065 52.6512 36.154C52.7787 36.0365 52.9787 36.0452 53.0937 36.1715C53.2112 36.2977 53.2037 36.4965 53.0762 36.6127C51.2799 38.2727 48.9449 39.1865 46.4999 39.1865Z" fill="#472B29"/>
<path d="M79.6249 53.2485H54.6249C54.2799 53.2485 53.9999 52.9685 53.9999 52.6235C53.9999 52.2785 54.2799 51.9985 54.6249 51.9985H79.6249C79.9699 51.9985 80.2499 52.2785 80.2499 52.6235C80.2499 52.9685 79.9699 53.2485 79.6249 53.2485Z" fill="#472B29"/>
<path d="M77.125 55.125C78.5057 55.125 79.625 54.0057 79.625 52.625C79.625 51.2443 78.5057 50.125 77.125 50.125C75.7443 50.125 74.625 51.2443 74.625 52.625C74.625 54.0057 75.7443 55.125 77.125 55.125Z" fill="#FAE348"/>
<path d="M77.1249 55.7493C75.4012 55.7493 73.9999 54.348 73.9999 52.6243C73.9999 50.9005 75.4012 49.4993 77.1249 49.4993C78.8487 49.4993 80.2499 50.9005 80.2499 52.6243C80.2499 54.348 78.8487 55.7493 77.1249 55.7493ZM77.1249 50.7493C76.0912 50.7493 75.2499 51.5905 75.2499 52.6243C75.2499 53.658 76.0912 54.4993 77.1249 54.4993C78.1587 54.4993 78.9999 53.658 78.9999 52.6243C78.9999 51.5905 78.1587 50.7493 77.1249 50.7493Z" fill="#472B29"/>
<path d="M47.125 49.4985C46.78 49.4985 46.5 49.2185 46.5 48.8735V45.1235C46.5 44.7785 46.78 44.4985 47.125 44.4985C47.47 44.4985 47.75 44.7785 47.75 45.1235V48.8735C47.75 49.2185 47.47 49.4985 47.125 49.4985Z" fill="#472B29"/>
<path d="M47.125 65.7495C46.78 65.7495 46.5 65.4695 46.5 65.1245V51.3745C46.5 51.0295 46.78 50.7495 47.125 50.7495C47.47 50.7495 47.75 51.0295 47.75 51.3745V65.1245C47.75 65.4695 47.47 65.7495 47.125 65.7495Z" fill="#472B29"/>
</svg>
