<svg width="86" height="80" viewBox="0 0 86 80" fill="none" xmlns="http://www.w3.org/2000/svg">
<path d="M1.12329 36C0.825373 36 0.53966 36.1183 0.329002 36.329C0.118345 36.5397 0 36.8254 0 37.1233C0 37.4212 0.118345 37.7069 0.329002 37.9176C0.53966 38.1282 0.825373 38.2466 1.12329 38.2466C1.4212 38.2466 1.70692 38.1282 1.91757 37.9176C2.12823 37.7069 2.24658 37.4212 2.24658 37.1233C2.24658 36.8254 2.12823 36.5397 1.91757 36.329C1.70692 36.1183 1.4212 36 1.12329 36Z" fill="#FAE348"/>
<path d="M59.4931 3C58.3015 3 57.1586 3.47338 56.316 4.31601C55.4734 5.15864 55 6.30149 55 7.49315C55 8.68481 55.4734 9.82766 56.316 10.6703C57.1586 11.5129 58.3015 11.9863 59.4931 11.9863C60.6848 11.9863 61.8276 11.5129 62.6703 10.6703C63.5129 9.82766 63.9863 8.68481 63.9863 7.49315C63.9863 6.30149 63.5129 5.15864 62.6703 4.31601C61.8276 3.47338 60.6848 3 59.4931 3Z" fill="#FAE348"/>
<path d="M78.2466 34C77.6507 34 77.0793 34.2367 76.658 34.658C76.2367 35.0793 76 35.6507 76 36.2466C76 36.8424 76.2367 37.4138 76.658 37.8351C77.0793 38.2565 77.6507 38.4932 78.2466 38.4932C78.8424 38.4932 79.4138 38.2565 79.8351 37.8351C80.2565 37.4138 80.4932 36.8424 80.4932 36.2466C80.4932 35.6507 80.2565 35.0793 79.8351 34.658C79.4138 34.2367 78.8424 34 78.2466 34Z" fill="#FAE348"/>
<path d="M59.2 73.9277C58.8338 73.9277 58.4711 73.9999 58.1327 74.1401C57.7943 74.2802 57.4868 74.4857 57.2278 74.7447C56.9688 75.0037 56.7634 75.3111 56.6232 75.6495C56.4831 75.9879 56.4109 76.3506 56.4109 76.7169C56.4109 77.0831 56.4831 77.4458 56.6232 77.7842C56.7634 78.1226 56.9688 78.4301 57.2278 78.6891C57.4868 78.9481 57.7943 79.1535 58.1327 79.2937C58.4711 79.4338 58.8338 79.506 59.2 79.506C59.5663 79.506 59.929 79.4338 60.2674 79.2937C60.6058 79.1535 60.9132 78.9481 61.1722 78.6891C61.4312 78.4301 61.6367 78.1226 61.7768 77.7842C61.917 77.4458 61.9892 77.0831 61.9892 76.7169C61.9892 76.3506 61.917 75.9879 61.7768 75.6495C61.6367 75.3111 61.4312 75.0037 61.1722 74.7447C60.9132 74.4857 60.6058 74.2802 60.2674 74.1401C59.929 73.9999 59.5663 73.9277 59.2 73.9277ZM2.4931 41.3142C2.19519 41.3142 1.90947 41.4326 1.69882 41.6432C1.48816 41.8539 1.36981 42.1396 1.36981 42.4375C1.36981 42.7354 1.48816 43.0211 1.69882 43.2318C1.90947 43.4424 2.19519 43.5608 2.4931 43.5608C2.79101 43.5608 3.07673 43.4424 3.28738 43.2318C3.49804 43.0211 3.61639 42.7354 3.61639 42.4375C3.61639 42.1396 3.49804 41.8539 3.28738 41.6432C3.07673 41.4326 2.79101 41.3142 2.4931 41.3142Z" fill="white"/>
<path d="M6.12329 0C5.82537 0 5.53966 0.118345 5.329 0.329002C5.11835 0.53966 5 0.825373 5 1.12329C5 1.4212 5.11835 1.70692 5.329 1.91757C5.53966 2.12823 5.82537 2.24658 6.12329 2.24658C6.4212 2.24658 6.70692 2.12823 6.91757 1.91757C7.12823 1.70692 7.24658 1.4212 7.24658 1.12329C7.24658 0.825373 7.12823 0.53966 6.91757 0.329002C6.70692 0.118345 6.4212 0 6.12329 0Z" fill="#FAE348"/>
<path d="M74.3834 60.4109C73.7876 60.4109 73.2162 60.6476 72.7949 61.0689C72.3736 61.4902 72.1369 62.0616 72.1369 62.6575C72.1369 63.2533 72.3736 63.8247 72.7949 64.246C73.2162 64.6673 73.7876 64.904 74.3834 64.904C74.9793 64.904 75.5507 64.6673 75.972 64.246C76.3933 63.8247 76.63 63.2533 76.63 62.6575C76.63 62.0616 76.3933 61.4902 75.972 61.0689C75.5507 60.6476 74.9793 60.4109 74.3834 60.4109Z" fill="white"/>
<path d="M62.517 66.0008C56.6591 60.0597 48.9398 56.7977 40.6848 56.7977C32.4309 56.7977 24.7116 60.0586 18.8526 65.9997C13.8753 60.3866 11.1423 53.1515 11.1423 45.5367C11.1423 28.7773 24.3949 15.1428 40.6848 15.1428C56.9747 15.1428 70.2273 28.7773 70.2273 45.5367C70.2273 53.1526 67.4954 60.3877 62.517 66.0008Z" fill="#FAE348"/>
<path d="M40.6849 15.9281C56.5412 15.9281 69.441 29.2098 69.441 45.5357C69.441 52.6775 66.9777 59.4734 62.471 64.8484C56.5423 59.1353 48.8703 56.0103 40.6849 56.0103C32.5006 56.0103 24.8285 59.1353 18.8987 64.8484C14.3921 59.4723 11.9287 52.6764 11.9287 45.5357C11.9287 29.2098 24.8285 15.9281 40.6849 15.9281ZM40.6849 14.3555C23.9344 14.3555 10.3561 28.3157 10.3561 45.5357C10.3561 53.93 13.5889 61.5437 18.8369 67.15C24.3545 61.2561 32.0996 57.5829 40.6838 57.5829C49.2679 57.5829 57.0152 61.2561 62.5328 67.15C67.7808 61.5448 71.0136 53.93 71.0136 45.5357C71.0136 28.3146 57.4353 14.3555 40.6849 14.3555Z" fill="#472B29"/>
<path d="M45.7397 46.3696H64.274C63.9314 32.6598 53.505 21.6572 40.6849 21.6572C27.8648 21.6572 17.4385 32.6598 17.0959 46.3696H34.5068" fill="#FEFDEF"/>
<path d="M64.8503 46.9308H45.7398C45.4298 46.9308 45.1782 46.6792 45.1782 46.3692C45.1782 46.0592 45.4298 45.8075 45.7398 45.8075H63.6922C63.0856 32.5348 53.0805 22.2185 40.685 22.2185C28.2895 22.2185 18.2844 32.5348 17.6778 45.8075H34.5069C34.8169 45.8075 35.0686 46.0592 35.0686 46.3692C35.0686 46.6792 34.8169 46.9308 34.5069 46.9308H16.5197L16.5343 46.3546C16.8882 32.191 27.4965 21.0952 40.685 21.0952C53.8735 21.0952 64.4818 32.191 64.8357 46.3546L64.8503 46.9308Z" fill="#472B29"/>
<path d="M41.3517 50.1934L41.3515 50.1928L41.3383 50.1976C40.4717 50.5094 39.6921 50.3255 39.1258 49.9467C38.5509 49.5622 38.2155 48.9924 38.2096 48.5551L38.2095 48.5447L38.2079 48.5344L34.9706 27.4391L34.9708 27.439L34.9691 27.4309C34.7877 26.5681 35.2369 25.7827 35.9046 25.6417C36.5722 25.5018 37.299 26.039 37.4816 26.902L37.4813 26.902L37.4835 26.9099L43.0247 47.5159C43.1139 47.9442 43.0766 48.5179 42.8265 49.0317C42.5782 49.5418 42.1189 49.9961 41.3517 50.1934Z" fill="#33617E" stroke="#616161" stroke-width="0.3"/>
<path d="M24.3972 43.2809H21.0273C20.8723 43.2809 20.7465 43.1551 20.7465 43.0001C20.7465 42.845 20.8723 42.7192 21.0273 42.7192H24.3972C24.5522 42.7192 24.678 42.845 24.678 43.0001C24.678 43.1551 24.5522 43.2809 24.3972 43.2809Z" fill="#472B29"/>
<path d="M60.3424 43.2809H56.9726C56.8176 43.2809 56.6917 43.1551 56.6917 43.0001C56.6917 42.845 56.8176 42.7192 56.9726 42.7192H60.3424C60.4974 42.7192 60.6232 42.845 60.6232 43.0001C60.6232 43.1551 60.4974 43.2809 60.3424 43.2809Z" fill="#472B29"/>
<path d="M41.2466 28.6776C41.0916 28.6776 40.9658 28.5518 40.9658 28.3968V25.0269C40.9658 24.8719 41.0916 24.7461 41.2466 24.7461C41.4016 24.7461 41.5274 24.8719 41.5274 25.0269V28.3968C41.5274 28.5518 41.4016 28.6776 41.2466 28.6776Z" fill="#472B29"/>
<path d="M51.2876 33.8011C51.2157 33.8011 51.1439 33.7742 51.0888 33.7191C50.9787 33.6091 50.9787 33.4316 51.0888 33.3215L53.4713 30.939C53.5814 30.8289 53.7589 30.8289 53.869 30.939C53.979 31.0491 53.979 31.2266 53.869 31.3367L51.4865 33.7191C51.4314 33.7731 51.3607 33.8011 51.2876 33.8011Z" fill="#472B29"/>
<path d="M28.9589 33.8011C28.887 33.8011 28.8151 33.7742 28.76 33.7191L26.3775 31.3367C26.2675 31.2266 26.2675 31.0491 26.3775 30.939C26.4876 30.8289 26.6651 30.8289 26.7752 30.939L29.1577 33.3215C29.2678 33.4316 29.2678 33.6091 29.1577 33.7191C29.1015 33.7731 29.0308 33.8011 28.9589 33.8011Z" fill="#472B29"/>
<circle cx="6" cy="69" r="3" fill="#FAE348"/>
<circle cx="83" cy="44" r="3" fill="#FAE348"/>
<circle cx="11" cy="73" r="1" fill="#FAE348"/>
</svg>
