<svg width="46" height="33" viewBox="0 0 46 33" fill="none" xmlns="http://www.w3.org/2000/svg">
<path d="M28.875 0C33.2511 0 37.4479 1.73839 40.5423 4.83274C43.6366 7.92709 45.375 12.1239 45.375 16.5C45.375 20.8761 43.6366 25.0729 40.5423 28.1673C37.4479 31.2616 33.2511 33 28.875 33C24.4989 33 20.3021 31.2616 17.2077 28.1673C14.1134 25.0729 12.375 20.8761 12.375 16.5C12.375 12.1239 14.1134 7.92709 17.2077 4.83274C20.3021 1.73839 24.4989 0 28.875 0V0ZM28.875 4.125C25.5929 4.125 22.4453 5.42879 20.1246 7.74955C17.8038 10.0703 16.5 13.2179 16.5 16.5C16.5 19.7821 17.8038 22.9297 20.1246 25.2504C22.4453 27.5712 25.5929 28.875 28.875 28.875C32.1571 28.875 35.3047 27.5712 37.6254 25.2504C39.9462 22.9297 41.25 19.7821 41.25 16.5C41.25 13.2179 39.9462 10.0703 37.6254 7.74955C35.3047 5.42879 32.1571 4.125 28.875 4.125ZM26.8125 8.25H29.9062V16.0462L34.7119 20.8519L32.5256 23.0381L26.8125 17.325V8.25ZM2.0625 28.875C1.51549 28.875 0.990886 28.6577 0.604092 28.2709C0.217298 27.8841 0 27.3595 0 26.8125C0 26.2655 0.217298 25.7409 0.604092 25.3541C0.990886 24.9673 1.51549 24.75 2.0625 24.75H9.96187C10.6012 26.2144 11.4262 27.5962 12.375 28.875H2.0625ZM4.125 18.5625C3.57799 18.5625 3.05339 18.3452 2.66659 17.9584C2.2798 17.5716 2.0625 17.047 2.0625 16.5C2.0625 15.953 2.2798 15.4284 2.66659 15.0416C3.05339 14.6548 3.57799 14.4375 4.125 14.4375H8.35313L8.25 16.5L8.35313 18.5625H4.125ZM6.1875 8.25C5.64049 8.25 5.11589 8.0327 4.72909 7.64591C4.3423 7.25911 4.125 6.73451 4.125 6.1875C4.125 5.64049 4.3423 5.11589 4.72909 4.72909C5.11589 4.3423 5.64049 4.125 6.1875 4.125H12.375C11.4262 5.40375 10.6012 6.78563 9.96187 8.25H6.1875Z" fill="#00395E"/>
</svg>
