<svg width="33" height="33" viewBox="0 0 33 33" fill="none" xmlns="http://www.w3.org/2000/svg">
<path d="M26.763 8.00486C26.8728 8.11434 26.9598 8.24439 27.0193 8.38758C27.0787 8.53076 27.1092 8.68426 27.1092 8.83929C27.1092 8.99431 27.0787 9.14781 27.0193 9.29099C26.9598 9.43418 26.8728 9.56424 26.763 9.67371L22.638 13.7987C22.4233 14.0132 22.1341 14.1366 21.8307 14.1431C21.5273 14.1497 21.233 14.039 21.0092 13.8341L19.2414 12.2194C19.0224 12.0059 18.8951 11.7155 18.8862 11.4098C18.8774 11.104 18.9878 10.8068 19.1941 10.581C19.4003 10.3551 19.6863 10.2183 19.9916 10.1994C20.2969 10.1806 20.5976 10.2811 20.8301 10.4799L21.7659 11.3331L25.0941 8.00486C25.2036 7.8951 25.3337 7.80802 25.4769 7.74861C25.6201 7.68919 25.7735 7.65861 25.9286 7.65861C26.0836 7.65861 26.2371 7.68919 26.3803 7.74861C26.5235 7.80802 26.6535 7.8951 26.763 8.00486V8.00486ZM26.763 21.4594C26.9843 21.2384 27.1088 20.9386 27.109 20.6258C27.1092 20.3131 26.9852 20.0131 26.7642 19.7917C26.5432 19.5704 26.2433 19.446 25.9306 19.4458C25.6178 19.4456 25.3178 19.5696 25.0965 19.7906L21.7659 23.1189L20.8301 22.2656C20.5976 22.0668 20.2969 21.9663 19.9916 21.9851C19.6863 22.004 19.4003 22.1408 19.1941 22.3667C18.9878 22.5925 18.8774 22.8897 18.8862 23.1955C18.8951 23.5012 19.0224 23.7916 19.2414 24.0051L21.0092 25.6198C21.2329 25.824 21.5267 25.9343 21.8295 25.9277C22.1324 25.9211 22.421 25.7982 22.6356 25.5844L26.7606 21.4594H26.763ZM7.07143 22.3929C7.07143 22.0803 7.1956 21.7805 7.41662 21.5595C7.63765 21.3385 7.93742 21.2143 8.25 21.2143H14.1429C14.4554 21.2143 14.7552 21.3385 14.9762 21.5595C15.1973 21.7805 15.3214 22.0803 15.3214 22.3929C15.3214 22.7054 15.1973 23.0052 14.9762 23.2262C14.7552 23.4473 14.4554 23.5714 14.1429 23.5714H8.25C7.93742 23.5714 7.63765 23.4473 7.41662 23.2262C7.1956 23.0052 7.07143 22.7054 7.07143 22.3929ZM8.25 9.42857C7.93742 9.42857 7.63765 9.55274 7.41662 9.77377C7.1956 9.99479 7.07143 10.2946 7.07143 10.6071C7.07143 10.9197 7.1956 11.2195 7.41662 11.4405C7.63765 11.6615 7.93742 11.7857 8.25 11.7857H14.1429C14.4554 11.7857 14.7552 11.6615 14.9762 11.4405C15.1973 11.2195 15.3214 10.9197 15.3214 10.6071C15.3214 10.2946 15.1973 9.99479 14.9762 9.77377C14.7552 9.55274 14.4554 9.42857 14.1429 9.42857H8.25ZM0 3.53571C0 2.59798 0.372512 1.69866 1.03559 1.03559C1.69866 0.372512 2.59798 0 3.53571 0H29.4643C30.402 0 31.3013 0.372512 31.9644 1.03559C32.6275 1.69866 33 2.59798 33 3.53571V29.4643C33 30.402 32.6275 31.3013 31.9644 31.9644C31.3013 32.6275 30.402 33 29.4643 33H3.53571C2.59798 33 1.69866 32.6275 1.03559 31.9644C0.372512 31.3013 0 30.402 0 29.4643V3.53571ZM3.53571 2.35714C3.22314 2.35714 2.92336 2.48131 2.70234 2.70234C2.48131 2.92336 2.35714 3.22314 2.35714 3.53571V29.4643C2.35714 29.7769 2.48131 30.0766 2.70234 30.2977C2.92336 30.5187 3.22314 30.6429 3.53571 30.6429H29.4643C29.7769 30.6429 30.0766 30.5187 30.2977 30.2977C30.5187 30.0766 30.6429 29.7769 30.6429 29.4643V3.53571C30.6429 3.22314 30.5187 2.92336 30.2977 2.70234C30.0766 2.48131 29.7769 2.35714 29.4643 2.35714H3.53571Z" fill="#00395E"/>
</svg>
