<svg width="62" height="68" viewBox="0 0 62 68" fill="none" xmlns="http://www.w3.org/2000/svg">
<path d="M22.0331 14.4754C23.6145 14.7717 23.1747 17.1925 21.5932 16.8962C9.04973 14.5292 0.26156 19.5627 6.91466 32.0261C7.7098 33.4414 5.60036 34.663 4.80535 33.2475C-3.11639 19.1569 7.15573 11.6148 22.0331 14.4753V14.4754ZM53.6682 38.3753C64.8811 24.4528 59.9431 14.0992 46.461 13.9298C44.8597 13.9086 44.8302 16.3698 46.4314 16.3911C58.3654 16.3393 61.2047 25.3034 51.8105 36.7894C50.7752 38.0676 52.6714 39.5897 53.6682 38.3752V38.3753ZM41.8736 60.2123C42.6931 58.8309 40.6527 57.5433 39.7935 58.9402C33.0096 69.8402 24.7176 66.482 19.699 53.3385C19.1564 51.7726 16.8651 52.5913 17.4077 54.157C21.8475 67.9255 33.6215 73.9916 41.8736 60.2125V60.2123ZM34.4428 35.6943C34.4428 33.0386 31.592 31.3698 29.3236 32.6977C27.0551 34.0255 27.0551 37.3633 29.3236 38.6911C31.592 40.019 34.4428 38.3502 34.4428 35.6943ZM4.63975 46.8825C5.03504 35.9415 20.7312 21.9858 39.2413 17.1836C40.8306 16.8328 40.3157 14.4275 38.7262 14.7784C21.6295 18.6217 1.34682 34.0534 2.19939 47.559C-0.764056 49.375 -0.733187 53.7826 2.29029 55.5461C5.34412 57.3272 9.18184 55.0888 9.18184 51.5266C9.18184 48.8491 7.01354 46.9195 4.63975 46.8826V46.8825ZM54.9067 55.4131C57.089 56.8548 60.2454 56.1946 61.5193 53.6069C63.0873 50.4216 60.6409 46.6783 57.1263 46.885C53.8267 47.079 51.884 50.6206 53.2697 53.5176C42.609 58.227 22.8068 50.3471 11.164 37.8212C10.0985 36.6276 8.30011 38.2826 9.36549 39.4763C20.4084 51.8747 42.8467 61.9004 54.9067 55.4131ZM35.6226 4.63892C35.6237 1.59353 32.6271 -0.768277 29.5931 0.233527C26.2452 1.33919 25.3398 5.71868 27.9672 8.09802C30.1777 10.0995 33.5061 9.43332 34.936 7.09661C43.2202 12.6575 48.3609 31.6619 42.8833 51.7757C42.4095 53.3326 44.7306 54.0608 45.2044 52.5039C50.1816 36.1795 47.4891 12.005 35.6226 4.63878V4.63892Z" fill="black"/>
</svg>
